<?xml version="1.0" encoding="UTF-8"?>
<!DOCTYPE svg PUBLIC "-//W3C//DTD SVG 1.1//EN" "http://www.w3.org/Graphics/SVG/1.1/DTD/svg11.dtd">
<svg xmlns="http://www.w3.org/2000/svg" version="1.1" width="411px" height="238px" style="shape-rendering:geometricPrecision; text-rendering:geometricPrecision; image-rendering:optimizeQuality; fill-rule:evenodd; clip-rule:evenodd" xmlns:xlink="http://www.w3.org/1999/xlink">
<g><path style="opacity:1" fill="#fdfdfd" d="M -0.5,-0.5 C 135.167,-0.5 270.833,-0.5 406.5,-0.5C 406.5,78.8333 406.5,158.167 406.5,237.5C 270.833,237.5 135.167,237.5 -0.5,237.5C -0.5,158.167 -0.5,78.8333 -0.5,-0.5 Z"/></g>
<g><path style="opacity:1" fill="#e9e9ed" d="M 406.5,-0.5 C 407.833,-0.5 409.167,-0.5 410.5,-0.5C 410.5,78.8333 410.5,158.167 410.5,237.5C 409.167,237.5 407.833,237.5 406.5,237.5C 406.5,158.167 406.5,78.8333 406.5,-0.5 Z"/></g>
<g><path style="opacity:1" fill="#41424e" d="M 274.5,38.5 C 275.718,39.1614 277.051,39.8281 278.5,40.5C 278.376,41.1067 278.043,41.44 277.5,41.5C 276.5,41.5 275.5,41.5 274.5,41.5C 274.5,42.5 274.5,43.5 274.5,44.5C 273.5,45.8333 272.5,45.8333 271.5,44.5C 272.833,41.8333 272.833,39.1667 271.5,36.5C 269.663,36.3605 269.33,35.6939 270.5,34.5C 275.942,32.6001 277.275,33.9334 274.5,38.5 Z"/></g>
<g><path style="opacity:1" fill="#6a6c76" d="M 271.5,36.5 C 272.833,39.1667 272.833,41.8333 271.5,44.5C 271.5,43.5 271.5,42.5 271.5,41.5C 268.833,41.5 266.167,41.5 263.5,41.5C 262.839,42.7175 262.172,44.0508 261.5,45.5C 261.167,45.1667 260.833,44.8333 260.5,44.5C 261.05,42.3432 261.717,40.3432 262.5,38.5C 266.012,39.0545 269.012,38.3878 271.5,36.5 Z"/></g>
<g><path style="opacity:1" fill="#93959a" d="M 277.5,41.5 C 278.043,41.44 278.376,41.1067 278.5,40.5C 277.051,39.8281 275.718,39.1614 274.5,38.5C 277.176,37.9919 279.843,37.8253 282.5,38C 284.5,42.3333 283.167,44 278.5,43C 277.944,42.6174 277.611,42.1174 277.5,41.5 Z"/></g>
<g><path style="opacity:1" fill="#141717" d="M 155.5,144.5 C 156.569,147.408 156.736,150.408 156,153.5C 152.963,155.027 150.463,157.193 148.5,160C 144.163,161.418 140.829,160.252 138.5,156.5C 123.845,155.334 109.178,155.167 94.5,156C 92.8108,159.964 89.8108,161.464 85.5,160.5C 83.2527,157.675 80.4194,155.675 77,154.5C 74.6432,150.483 75.1432,146.983 78.5,144C 85.1583,143.5 91.825,143.334 98.5,143.5C 99.4907,137.021 99.824,130.354 99.5,123.5C 91.8333,123.5 84.1667,123.5 76.5,123.5C 75.5494,119.038 74.5494,114.538 73.5,110C 75.0436,102.182 75.7102,94.1819 75.5,86C 75.6815,77.3173 75.0148,68.8173 73.5,60.5C 71.8008,60.3398 70.1341,60.5065 68.5,61C 65.2118,66.9915 61.0451,67.8248 56,63.5C 53.2792,58.7261 54.6125,55.7261 60,54.5C 60.498,51.5184 60.6646,48.5184 60.5,45.5C 67.106,46.6812 69.7727,50.6812 68.5,57.5C 71.7462,57.3979 74.5795,56.3979 77,54.5C 78.1074,54.5852 79.1074,54.9186 80,55.5C 79.0826,65.5061 78.5826,75.6727 78.5,86C 78.7497,94.0393 79.4164,102.039 80.5,110C 80.0779,113.586 79.4112,117.086 78.5,120.5C 85.3134,121.491 92.3134,121.825 99.5,121.5C 99.8269,111.985 99.4936,102.652 98.5,93.5C 95.1501,93.665 91.8168,93.4983 88.5,93C 86.1853,91.8906 84.6853,90.0573 84,87.5C 83.3333,73.1667 83.3333,58.8333 84,44.5C 85.1667,43.3333 86.3333,42.1667 87.5,41C 106.5,40.3333 125.5,40.3333 144.5,41C 146.333,41.5 147.5,42.6667 148,44.5C 148.499,50.1569 148.666,55.8236 148.5,61.5C 153.179,61.6658 157.845,61.4992 162.5,61C 164.919,59.4912 165.919,57.3245 165.5,54.5C 161.416,54.9569 157.583,54.2902 154,52.5C 153.333,45.8333 153.333,39.1667 154,32.5C 154.75,31.8742 155.584,31.3742 156.5,31C 163.5,30.3333 170.5,30.3333 177.5,31C 178.416,31.3742 179.25,31.8742 180,32.5C 180.667,38.8333 180.667,45.1667 180,51.5C 179.167,52.3333 178.333,53.1667 177.5,54C 174.518,54.498 171.518,54.6646 168.5,54.5C 168.654,58.0254 167.321,60.8587 164.5,63C 159.292,64.3967 153.959,64.8967 148.5,64.5C 148.941,73.2756 148.441,81.9422 147,90.5C 146.097,91.7014 144.931,92.5348 143.5,93C 140.183,93.4983 136.85,93.665 133.5,93.5C 133.5,110.167 133.5,126.833 133.5,143.5C 140.92,143.203 148.254,143.536 155.5,144.5 Z"/></g>
<g><path style="opacity:1" fill="#f0f1f1" d="M 156.5,33.5 C 163.508,33.3337 170.508,33.5004 177.5,34C 178.639,39.4162 178.806,44.9162 178,50.5C 170.914,51.6456 163.747,51.8123 156.5,51C 155.187,45.167 155.187,39.3337 156.5,33.5 Z"/></g>
<g><path style="opacity:1" fill="#2c2d3f" d="M 197.5,41.5 C 205.322,41.1659 208.156,44.8325 206,52.5C 203.239,56.3862 199.739,57.3862 195.5,55.5C 194.261,54.788 193.761,53.788 194,52.5C 195.413,50.5864 197.247,49.2531 199.5,48.5C 200.739,50.0072 200.405,51.1739 198.5,52C 199.5,52.6667 200.5,52.6667 201.5,52C 203.784,46.4523 202.117,44.6189 196.5,46.5C 193.817,52.1554 192.484,51.822 192.5,45.5C 193.129,43.0029 194.796,41.6696 197.5,41.5 Z"/></g>
<g><path style="opacity:1" fill="#f1f2f2" d="M 89.5,42.5 C 107.503,42.3334 125.503,42.5001 143.5,43C 144,43.5 144.5,44 145,44.5C 145.667,59.1667 145.667,73.8333 145,88.5C 144.5,89 144,89.5 143.5,90C 125.167,90.6667 106.833,90.6667 88.5,90C 87.8742,89.2496 87.3742,88.4162 87,87.5C 86.3333,73.5 86.3333,59.5 87,45.5C 88.045,44.6266 88.8783,43.6266 89.5,42.5 Z"/></g>
<g><path style="opacity:1" fill="#edf0f8" d="M 263.5,41.5 C 266.167,41.5 268.833,41.5 271.5,41.5C 271.5,42.5 271.5,43.5 271.5,44.5C 269.468,45.0478 268.468,46.3812 268.5,48.5C 267.662,48.8417 267.328,49.5084 267.5,50.5C 265.621,47.9082 264.287,44.9082 263.5,41.5 Z"/></g>
<g><path style="opacity:1" fill="#868a97" d="M 271.5,44.5 C 272.5,45.8333 273.5,45.8333 274.5,44.5C 276.912,44.6941 277.912,46.0274 277.5,48.5C 274.5,48.5 271.5,48.5 268.5,48.5C 268.468,46.3812 269.468,45.0478 271.5,44.5 Z"/></g>
<g><path style="opacity:1" fill="#1a1d1d" d="M 91.5,45.5 C 108.17,45.3334 124.837,45.5001 141.5,46C 142,46.5 142.5,47 143,47.5C 143.667,56.1667 143.667,64.8333 143,73.5C 142.5,74 142,74.5 141.5,75C 124.5,75.6667 107.5,75.6667 90.5,75C 89.8462,70.2468 89.5128,65.4135 89.5,60.5C 89.5551,55.2525 90.2218,50.2525 91.5,45.5 Z"/></g>
<g><path style="opacity:1" fill="#d8dbda" d="M 92.5,49.5 C 108.325,48.5036 124.325,48.1703 140.5,48.5C 140.826,56.6841 140.492,64.6841 139.5,72.5C 139.5,64.8333 139.5,57.1667 139.5,49.5C 123.833,49.5 108.167,49.5 92.5,49.5 Z"/></g>
<g><path style="opacity:1" fill="#fefefe" d="M 92.5,49.5 C 108.167,49.5 123.833,49.5 139.5,49.5C 139.5,57.1667 139.5,64.8333 139.5,72.5C 123.833,72.5 108.167,72.5 92.5,72.5C 92.5,64.8333 92.5,57.1667 92.5,49.5 Z"/></g>
<g><path style="opacity:1" fill="#c4c5c8" d="M 262.5,38.5 C 261.717,40.3432 261.05,42.3432 260.5,44.5C 260.833,44.8333 261.167,45.1667 261.5,45.5C 262.172,44.0508 262.839,42.7175 263.5,41.5C 264.287,44.9082 265.621,47.9082 267.5,50.5C 267.155,53.1979 265.822,55.1979 263.5,56.5C 262.526,54.9147 261.026,53.9147 259,53.5C 258.502,50.5184 258.335,47.5184 258.5,44.5C 255.77,43.0086 255.937,41.6752 259,40.5C 259.833,38.5 260.667,36.5 261.5,34.5C 262.429,35.6888 262.762,37.0222 262.5,38.5 Z"/></g>
<g><path style="opacity:1" fill="#eaecf0" d="M 258.5,44.5 C 258.335,47.5184 258.502,50.5184 259,53.5C 261.026,53.9147 262.526,54.9147 263.5,56.5C 262.526,83.468 262.193,110.468 262.5,137.5C 261.883,137.389 261.383,137.056 261,136.5C 260.823,140.356 260.323,144.023 259.5,147.5C 259.825,139.648 259.492,131.982 258.5,124.5C 255.663,122.598 252.329,121.931 248.5,122.5C 248.737,121.209 248.404,120.209 247.5,119.5C 245.603,118.195 243.269,117.529 240.5,117.5C 238.167,117.667 235.833,117.833 233.5,118C 232.62,119.356 232.286,120.856 232.5,122.5C 229.287,122.81 226.287,122.477 223.5,121.5C 228.5,117.167 233.167,112.5 237.5,107.5C 237.842,106.662 238.508,106.328 239.5,106.5C 240.675,106.281 241.675,106.614 242.5,107.5C 239.418,112.924 240.918,114.59 247,112.5C 247.494,110.866 247.66,109.199 247.5,107.5C 248.301,105.958 248.634,104.292 248.5,102.5C 251.833,102.5 255.167,102.5 258.5,102.5C 259.641,99.3601 259.808,96.0267 259,92.5C 258,91.1667 257,91.1667 256,92.5C 255.503,94.8098 255.337,97.1432 255.5,99.5C 254.209,99.7373 253.209,99.404 252.5,98.5C 253.833,96.8333 253.833,95.1667 252.5,93.5C 244.599,92.8048 236.599,92.1382 228.5,91.5C 228.389,90.8826 228.056,90.3826 227.5,90C 215.505,89.5001 203.505,89.3335 191.5,89.5C 195.565,88.8067 199.732,88.1401 204,87.5C 203.872,84.4954 202.372,83.8287 199.5,85.5C 198.289,84.7261 198.289,83.8928 199.5,83C 198.263,82.7679 197.263,82.2679 196.5,81.5C 198.861,81.6741 201.194,82.0074 203.5,82.5C 204.906,82.9731 205.573,83.9731 205.5,85.5C 219.994,86.6609 234.661,86.8276 249.5,86C 250.483,77.5851 250.817,69.0851 250.5,60.5C 235.458,59.1971 220.458,59.1971 205.5,60.5C 204.14,62.0463 203.14,63.8796 202.5,66C 202.521,69.489 202.854,72.989 203.5,76.5C 202.5,76.5 201.5,76.5 200.5,76.5C 200.5,77.5 200.5,78.5 200.5,79.5C 195.579,79.9571 192.079,77.9571 190,73.5C 188.966,67.4729 189.966,61.8062 193,56.5C 193.671,55.7476 194.504,55.4142 195.5,55.5C 199.739,57.3862 203.239,56.3862 206,52.5C 208.156,44.8325 205.322,41.1659 197.5,41.5C 199.708,39.0649 202.208,39.0649 205,41.5C 205.414,41.0426 205.914,40.7093 206.5,40.5C 207.807,46.388 207.807,52.2213 206.5,58C 217.5,58.6667 228.5,58.6667 239.5,58C 242.357,56.957 245.19,55.7903 248,54.5C 250.228,55.2993 251.561,54.2993 252,51.5C 252.915,52.3279 253.581,53.3279 254,54.5C 256.2,51.3684 257.7,48.0351 258.5,44.5 Z"/></g>
<g><path style="opacity:1" fill="#e0e3e2" d="M 62.5,49.5 C 63.4959,49.4142 64.3292,49.7476 65,50.5C 65.6667,54.1667 65.6667,57.8333 65,61.5C 60.8385,64.6677 58.3385,63.6677 57.5,58.5C 59.3904,58.7035 60.8904,58.0368 62,56.5C 62.4966,54.1902 62.6633,51.8568 62.5,49.5 Z"/></g>
<g><path style="opacity:1" fill="#abb1af" d="M 76.5,57.5 C 77.7479,58.3339 78.4146,59.6672 78.5,61.5C 78.1667,62.8333 77.8333,64.1667 77.5,65.5C 76.52,62.9135 76.1866,60.2469 76.5,57.5 Z"/></g>
<g><path style="opacity:1" fill="#404251" d="M 205.5,85.5 C 219.837,85.6666 234.171,85.4999 248.5,85C 245.325,85.0533 242.658,84.22 240.5,82.5C 242.833,82.5 245.167,82.5 247.5,82.5C 247.56,83.0431 247.893,83.3764 248.5,83.5C 248.833,80.1667 249.167,76.8333 249.5,73.5C 249.486,69.7614 248.82,66.428 247.5,63.5C 245.167,63.5 242.833,63.5 240.5,63.5C 240.5,65.8333 240.5,68.1667 240.5,70.5C 242.5,70.5 244.5,70.5 246.5,70.5C 244.708,71.3091 242.708,71.8091 240.5,72C 239.934,72.9947 239.267,73.828 238.5,74.5C 238.813,70.9581 238.479,67.6248 237.5,64.5C 228.014,63.5062 218.348,63.1729 208.5,63.5C 208.5,67.5 208.5,71.5 208.5,75.5C 208.131,71.2325 207.131,67.2325 205.5,63.5C 205.5,62.5 205.5,61.5 205.5,60.5C 220.458,59.1971 235.458,59.1971 250.5,60.5C 250.817,69.0851 250.483,77.5851 249.5,86C 234.661,86.8276 219.994,86.6609 205.5,85.5 Z"/></g>
<g><path style="opacity:1" fill="#272a3e" d="M 268.5,48.5 C 271.5,48.5 274.5,48.5 277.5,48.5C 279.462,52.4244 281.462,56.4244 283.5,60.5C 283.5,86.8333 283.5,113.167 283.5,139.5C 283.107,141.284 282.441,142.95 281.5,144.5C 280.057,145.335 279.057,146.668 278.5,148.5C 274.833,147.167 271.167,147.167 267.5,148.5C 266.828,147.051 266.161,145.718 265.5,144.5C 263.552,142.68 262.552,140.346 262.5,137.5C 262.193,110.468 262.526,83.468 263.5,56.5C 265.822,55.1979 267.155,53.1979 267.5,50.5C 267.328,49.5084 267.662,48.8417 268.5,48.5 Z"/></g>
<g><path style="opacity:1" fill="#eaedf1" d="M 275.5,77.5 C 272.167,77.5 268.833,77.5 265.5,77.5C 265.323,73.7657 265.656,70.0991 266.5,66.5C 269.757,63.8555 273.091,63.8555 276.5,66.5C 278.223,69.9398 278.89,73.6065 278.5,77.5C 277.5,77.5 276.5,77.5 275.5,77.5 Z"/></g>
<g><path style="opacity:1" fill="#74748b" d="M 167.5,68.5 C 168.343,73.681 171.343,77.0143 176.5,78.5C 175.89,79.391 175.557,80.391 175.5,81.5C 171.65,78.1485 167.983,74.6485 164.5,71C 163.072,70.4209 161.738,70.5876 160.5,71.5C 162.355,69.7669 164.688,68.7669 167.5,68.5 Z"/></g>
<g><path style="opacity:1" fill="#2e2f42" d="M 167.5,68.5 C 170.634,69.2785 173.301,70.9452 175.5,73.5C 177.379,75.0697 177.712,76.7363 176.5,78.5C 171.343,77.0143 168.343,73.681 167.5,68.5 Z"/></g>
<g><path style="opacity:1" fill="#61626d" d="M 192.5,45.5 C 192.484,51.822 193.817,52.1554 196.5,46.5C 202.117,44.6189 203.784,46.4523 201.5,52C 200.5,52.6667 199.5,52.6667 198.5,52C 200.405,51.1739 200.739,50.0072 199.5,48.5C 197.247,49.2531 195.413,50.5864 194,52.5C 193.761,53.788 194.261,54.788 195.5,55.5C 194.504,55.4142 193.671,55.7476 193,56.5C 189.966,61.8062 188.966,67.4729 190,73.5C 192.079,77.9571 195.579,79.9571 200.5,79.5C 200.5,78.5 200.5,77.5 200.5,76.5C 201.5,76.5 202.5,76.5 203.5,76.5C 202.854,72.989 202.521,69.489 202.5,66C 203.14,63.8796 204.14,62.0463 205.5,60.5C 205.5,61.5 205.5,62.5 205.5,63.5C 205.5,68.5 205.5,73.5 205.5,78.5C 204.167,78.5 202.833,78.5 201.5,78.5C 201.527,80.1993 202.194,81.5326 203.5,82.5C 201.194,82.0074 198.861,81.6741 196.5,81.5C 192.638,80.4763 189.805,78.1429 188,74.5C 187.333,70.1667 187.333,65.8333 188,61.5C 188.26,59.3825 189.26,57.7158 191,56.5C 191.177,52.6437 191.677,48.977 192.5,45.5 Z"/></g>
<g><path style="opacity:1" fill="#282941" d="M 175.5,81.5 C 177.86,84.5272 180.527,87.1938 183.5,89.5C 185.226,91.8201 185.893,94.4867 185.5,97.5C 180.87,95.1379 177.203,91.6379 174.5,87C 170.678,85.1691 167.845,82.3358 166,78.5C 164.758,77.1279 163.258,76.1279 161.5,75.5C 160.571,74.3112 160.238,72.9778 160.5,71.5C 161.738,70.5876 163.072,70.4209 164.5,71C 167.983,74.6485 171.65,78.1485 175.5,81.5 Z"/></g>
<g><path style="opacity:1" fill="#282a3e" d="M 205.5,63.5 C 207.131,67.2325 208.131,71.2325 208.5,75.5C 208.833,75.5 209.167,75.5 209.5,75.5C 219.348,75.8271 229.014,75.4938 238.5,74.5C 239.267,73.828 239.934,72.9947 240.5,72C 242.708,71.8091 244.708,71.3091 246.5,70.5C 247.468,68.3926 247.802,66.0593 247.5,63.5C 248.82,66.428 249.486,69.7614 249.5,73.5C 249.167,76.8333 248.833,80.1667 248.5,83.5C 247.893,83.3764 247.56,83.0431 247.5,82.5C 248.833,76.5 246.5,74.1667 240.5,75.5C 240.5,77.8333 240.5,80.1667 240.5,82.5C 242.658,84.22 245.325,85.0533 248.5,85C 234.171,85.4999 219.837,85.6666 205.5,85.5C 205.573,83.9731 204.906,82.9731 203.5,82.5C 202.194,81.5326 201.527,80.1993 201.5,78.5C 202.833,78.5 204.167,78.5 205.5,78.5C 205.5,73.5 205.5,68.5 205.5,63.5 Z"/></g>
<g><path style="opacity:1" fill="#a9acbd" d="M 247.5,82.5 C 245.167,82.5 242.833,82.5 240.5,82.5C 240.5,80.1667 240.5,77.8333 240.5,75.5C 246.5,74.1667 248.833,76.5 247.5,82.5 Z"/></g>
<g><path style="opacity:1" fill="#b0b1c6" d="M 231.5,78.5 C 232.833,78.5 234.167,78.5 235.5,78.5C 235.5,79.8333 235.5,81.1667 235.5,82.5C 234.167,82.5 232.833,82.5 231.5,82.5C 231.5,81.1667 231.5,79.8333 231.5,78.5 Z"/></g>
<g><path style="opacity:1" fill="#a9acbd" d="M 211.5,78.5 C 212.833,78.5 214.167,78.5 215.5,78.5C 215.5,79.8333 215.5,81.1667 215.5,82.5C 214.167,82.5 212.833,82.5 211.5,82.5C 211.5,81.1667 211.5,79.8333 211.5,78.5 Z"/></g>
<g><path style="opacity:1" fill="#ccceda" d="M 209.5,65.5 C 218.652,64.5064 227.985,64.1731 237.5,64.5C 238.479,67.6248 238.813,70.9581 238.5,74.5C 229.014,75.4938 219.348,75.8271 209.5,75.5C 209.5,75.1667 209.5,74.8333 209.5,74.5C 218.833,74.5 228.167,74.5 237.5,74.5C 237.5,71.5 237.5,68.5 237.5,65.5C 228.167,65.5 218.833,65.5 209.5,65.5 Z"/></g>
<g><path style="opacity:1" fill="#9f9fb4" d="M 247.5,63.5 C 247.802,66.0593 247.468,68.3926 246.5,70.5C 244.5,70.5 242.5,70.5 240.5,70.5C 240.5,68.1667 240.5,65.8333 240.5,63.5C 242.833,63.5 245.167,63.5 247.5,63.5 Z"/></g>
<g><path style="opacity:1" fill="#f9fbfc" d="M 209.5,65.5 C 218.833,65.5 228.167,65.5 237.5,65.5C 237.5,68.5 237.5,71.5 237.5,74.5C 228.167,74.5 218.833,74.5 209.5,74.5C 209.5,71.5 209.5,68.5 209.5,65.5 Z"/></g>
<g><path style="opacity:1" fill="#9e9faa" d="M 237.5,64.5 C 227.985,64.1731 218.652,64.5064 209.5,65.5C 209.5,68.5 209.5,71.5 209.5,74.5C 209.5,74.8333 209.5,75.1667 209.5,75.5C 209.167,75.5 208.833,75.5 208.5,75.5C 208.5,71.5 208.5,67.5 208.5,63.5C 218.348,63.1729 228.014,63.5062 237.5,64.5 Z"/></g>
<g><path style="opacity:1" fill="#b5b7cb" d="M 221.5,78.5 C 224.5,78.1667 225.833,79.5 225.5,82.5C 224.167,82.5 222.833,82.5 221.5,82.5C 221.5,81.1667 221.5,79.8333 221.5,78.5 Z"/></g>
<g><path style="opacity:1" fill="#f7f8f9" d="M 268.5,79.5 C 271.5,79.5 274.5,79.5 277.5,79.5C 277.5,97.5 277.5,115.5 277.5,133.5C 273.5,133.5 269.5,133.5 265.5,133.5C 265.5,115.5 265.5,97.5 265.5,79.5C 266.5,79.5 267.5,79.5 268.5,79.5 Z"/></g>
<g><path style="opacity:1" fill="#6d7080" d="M 283.5,60.5 C 284.18,84.8601 284.847,109.36 285.5,134C 285.046,136.03 284.38,137.863 283.5,139.5C 283.5,113.167 283.5,86.8333 283.5,60.5 Z"/></g>
<g><path style="opacity:1" fill="#151817" d="M 108.5,78.5 C 113.984,78.4809 115.65,80.9809 113.5,86C 106.683,86.8606 105.016,84.3606 108.5,78.5 Z"/></g>
<g><path style="opacity:1" fill="#cad1ce" d="M 109.5,81.5 C 112.957,81.6672 113.29,82.6672 110.5,84.5C 109.614,83.675 109.281,82.675 109.5,81.5 Z"/></g>
<g><path style="opacity:1" fill="#141817" d="M 94.5,78.5 C 99.9836,78.4809 101.65,80.9809 99.5,86C 92.6829,86.8606 91.0163,84.3606 94.5,78.5 Z"/></g>
<g><path style="opacity:1" fill="#d2d9d6" d="M 95.5,81.5 C 98.6741,81.9522 99.0075,82.9522 96.5,84.5C 95.6143,83.675 95.281,82.675 95.5,81.5 Z"/></g>
<g><path style="opacity:1" fill="#646464" d="M 305.5,85.5 C 303.167,85.5 300.833,85.5 298.5,85.5C 298.5,86.8333 298.5,88.1667 298.5,89.5C 300.833,89.5 303.167,89.5 305.5,89.5C 303.034,90.6341 300.367,90.8007 297.5,90C 296.167,88.3333 296.167,86.6667 297.5,85C 300.367,84.1993 303.034,84.3659 305.5,85.5 Z"/></g>
<g><path style="opacity:1" fill="#6b6c81" d="M 160.5,71.5 C 160.238,72.9778 160.571,74.3112 161.5,75.5C 163.258,76.1279 164.758,77.1279 166,78.5C 167.845,82.3358 170.678,85.1691 174.5,87C 177.203,91.6379 180.87,95.1379 185.5,97.5C 185.893,94.4867 185.226,91.8201 183.5,89.5C 185.558,90.9331 187.892,91.5997 190.5,91.5C 190.5,94.5 190.5,97.5 190.5,100.5C 188.143,100.663 185.81,100.497 183.5,100C 180.945,96.7407 177.945,94.4074 174.5,93C 175.056,93.3826 175.389,93.8826 175.5,94.5C 170.929,94.4298 168.429,92.0965 168,87.5C 165.877,84.7015 163.21,82.7015 160,81.5C 158.288,78.3183 156.455,75.3183 154.5,72.5C 156.565,72.4828 158.565,72.1495 160.5,71.5 Z"/></g>
<g><path style="opacity:1" fill="#f5f6f6" d="M 101.5,93.5 C 111.167,93.5 120.833,93.5 130.5,93.5C 130.5,95.8333 130.5,98.1667 130.5,100.5C 126.5,100.5 122.5,100.5 118.5,100.5C 118.5,101.5 118.5,102.5 118.5,103.5C 122.5,103.5 126.5,103.5 130.5,103.5C 130.5,116.833 130.5,130.167 130.5,143.5C 129.167,143.5 127.833,143.5 126.5,143.5C 126.666,137.824 126.499,132.157 126,126.5C 123.619,125.565 121.119,125.232 118.5,125.5C 118.5,131.5 118.5,137.5 118.5,143.5C 117.167,143.5 115.833,143.5 114.5,143.5C 114.666,137.824 114.499,132.157 114,126.5C 111.619,125.565 109.119,125.232 106.5,125.5C 106.5,131.5 106.5,137.5 106.5,143.5C 104.833,143.5 103.167,143.5 101.5,143.5C 101.5,126.833 101.5,110.167 101.5,93.5 Z"/></g>
<g><path style="opacity:1" fill="#80848a" d="M 258.5,102.5 C 258.817,99.4281 258.484,96.4281 257.5,93.5C 256.831,95.6309 256.165,97.6309 255.5,99.5C 255.337,97.1432 255.503,94.8098 256,92.5C 257,91.1667 258,91.1667 259,92.5C 259.808,96.0267 259.641,99.3601 258.5,102.5 Z"/></g>
<g><path style="opacity:1" fill="#c8c8c8" d="M 310.5,86.5 C 311.479,89.6248 311.813,92.9581 311.5,96.5C 323.012,96.1719 334.346,96.5052 345.5,97.5C 334.167,97.5 322.833,97.5 311.5,97.5C 310.518,94.0381 310.185,90.3714 310.5,86.5 Z"/></g>
<g><path style="opacity:1" fill="#747474" d="M 311.5,97.5 C 322.833,97.5 334.167,97.5 345.5,97.5C 345.5,98.5 345.5,99.5 345.5,100.5C 343.833,100.5 342.167,100.5 340.5,100.5C 340.5,104.167 340.5,107.833 340.5,111.5C 342.099,111.232 343.432,111.566 344.5,112.5C 342.833,112.5 341.167,112.5 339.5,112.5C 339.5,108.167 339.5,103.833 339.5,99.5C 333.364,98.6875 324.031,98.0208 311.5,97.5 Z"/></g>
<g><path style="opacity:1" fill="#6f738a" d="M 228.5,91.5 C 236.599,92.1382 244.599,92.8048 252.5,93.5C 245.167,93.5 237.833,93.5 230.5,93.5C 230.5,95.1667 230.5,96.8333 230.5,98.5C 237.833,98.5 245.167,98.5 252.5,98.5C 253.209,99.404 254.209,99.7373 255.5,99.5C 246.682,100.493 237.682,100.827 228.5,100.5C 228.5,97.5 228.5,94.5 228.5,91.5 Z"/></g>
<g><path style="opacity:1" fill="#2c2e43" d="M 191.5,89.5 C 203.505,89.3335 215.505,89.5001 227.5,90C 228.056,90.3826 228.389,90.8826 228.5,91.5C 228.5,94.5 228.5,97.5 228.5,100.5C 237.682,100.827 246.682,100.493 255.5,99.5C 256.165,97.6309 256.831,95.6309 257.5,93.5C 258.484,96.4281 258.817,99.4281 258.5,102.5C 255.167,102.5 251.833,102.5 248.5,102.5C 248.634,104.292 248.301,105.958 247.5,107.5C 244.631,110.512 243.298,109.845 243.5,105.5C 241.901,105.232 240.568,105.566 239.5,106.5C 238.508,106.328 237.842,106.662 237.5,107.5C 234.512,105.727 231.179,105.06 227.5,105.5C 227.666,101.486 227.499,97.4862 227,93.5C 226.5,93 226,92.5 225.5,92C 214.833,91.3333 204.167,91.3333 193.5,92C 192.556,94.7191 192.223,97.5525 192.5,100.5C 202.167,100.5 211.833,100.5 221.5,100.5C 221.5,102.167 221.5,103.833 221.5,105.5C 212.651,105.174 203.984,105.507 195.5,106.5C 185.249,105.525 174.915,105.192 164.5,105.5C 164.737,104.209 164.404,103.209 163.5,102.5C 162.833,102.5 162.167,102.5 161.5,102.5C 160.833,102.5 160.5,102.167 160.5,101.5C 166.631,99.846 172.964,99.0127 179.5,99C 177.616,97.9513 176.282,96.4513 175.5,94.5C 175.389,93.8826 175.056,93.3826 174.5,93C 177.945,94.4074 180.945,96.7407 183.5,100C 185.81,100.497 188.143,100.663 190.5,100.5C 190.5,97.5 190.5,94.5 190.5,91.5C 190.833,90.8333 191.167,90.1667 191.5,89.5 Z"/></g>
<g><path style="opacity:1" fill="#6c6f88" d="M 227.5,105.5 C 226.833,105.5 226.167,105.5 225.5,105.5C 224.833,89.5 224.167,89.5 223.5,105.5C 222.833,105.5 222.167,105.5 221.5,105.5C 221.5,103.833 221.5,102.167 221.5,100.5C 211.833,100.5 202.167,100.5 192.5,100.5C 192.223,97.5525 192.556,94.7191 193.5,92C 204.167,91.3333 214.833,91.3333 225.5,92C 226,92.5 226.5,93 227,93.5C 227.499,97.4862 227.666,101.486 227.5,105.5 Z"/></g>
<g><path style="opacity:1" fill="#292b47" d="M 194.5,93.5 C 203.5,93.5 212.5,93.5 221.5,93.5C 221.5,95.1667 221.5,96.8333 221.5,98.5C 212.5,98.5 203.5,98.5 194.5,98.5C 194.5,96.8333 194.5,95.1667 194.5,93.5 Z"/></g>
<g><path style="opacity:1" fill="#242841" d="M 252.5,93.5 C 253.833,95.1667 253.833,96.8333 252.5,98.5C 245.167,98.5 237.833,98.5 230.5,98.5C 230.5,96.8333 230.5,95.1667 230.5,93.5C 237.833,93.5 245.167,93.5 252.5,93.5 Z"/></g>
<g><path style="opacity:1" fill="#252a43" d="M 225.5,105.5 C 224.833,105.5 224.167,105.5 223.5,105.5C 224.167,89.5 224.833,89.5 225.5,105.5 Z"/></g>
<g><path style="opacity:1" fill="#fafafa" d="M 336.5,101.5 C 336.5,104.833 336.5,108.167 336.5,111.5C 330.582,112.011 324.915,111.344 319.5,109.5C 318.167,109.167 316.833,108.833 315.5,108.5C 314.791,107.596 313.791,107.263 312.5,107.5C 312.5,105.5 312.5,103.5 312.5,101.5C 320.5,101.5 328.5,101.5 336.5,101.5 Z"/></g>
<g><path style="opacity:1" fill="#70717c" d="M 266.5,66.5 C 265.656,70.0991 265.323,73.7657 265.5,77.5C 268.833,77.5 272.167,77.5 275.5,77.5C 273.167,78.1667 270.833,78.8333 268.5,79.5C 267.5,79.5 266.5,79.5 265.5,79.5C 265.5,97.5 265.5,115.5 265.5,133.5C 269.634,134.485 273.968,134.818 278.5,134.5C 274.03,135.486 269.363,135.819 264.5,135.5C 264.333,112.831 264.5,90.1642 265,67.5C 265.383,66.944 265.883,66.6107 266.5,66.5 Z"/></g>
<g><path style="opacity:1" fill="#f7faf8" d="M 195.5,106.5 C 199.167,106.5 202.833,106.5 206.5,106.5C 206.667,118.171 206.5,129.838 206,141.5C 204.324,144.039 204.491,146.539 206.5,149C 209.304,149.971 211.304,149.138 212.5,146.5C 211.57,144.394 210.404,142.394 209,140.5C 208.333,139.167 208.333,137.833 209,136.5C 212.367,132.797 216.034,129.464 220,126.5C 220.171,133.679 220.671,140.679 221.5,147.5C 221.5,147.833 221.5,148.167 221.5,148.5C 223.495,150.711 225.828,151.044 228.5,149.5C 228.5,150.167 228.833,150.5 229.5,150.5C 230.048,151.688 230.381,152.855 230.5,154C 232.256,154.202 233.922,154.702 235.5,155.5C 233.009,156.541 233.009,157.374 235.5,158C 234.643,158.689 233.977,159.522 233.5,160.5C 234.992,163.038 236.659,165.371 238.5,167.5C 234.058,169.39 232.558,172.723 234,177.5C 235.812,180.821 238.645,182.155 242.5,181.5C 245.046,184.105 244.379,185.772 240.5,186.5C 240.5,187.833 240.5,189.167 240.5,190.5C 240.5,193.833 240.5,197.167 240.5,200.5C 240.44,201.043 240.107,201.376 239.5,201.5C 237.633,198.771 236.633,199.104 236.5,202.5C 232.849,202.162 231.183,203.828 231.5,207.5C 227.831,208.303 225.164,207.136 223.5,204C 222.1,202.562 220.433,201.729 218.5,201.5C 218.16,198.856 218.827,196.523 220.5,194.5C 219.624,193.749 218.624,193.249 217.5,193C 218.624,192.751 219.624,192.251 220.5,191.5C 218.994,190.253 217.494,190.253 216,191.5C 215.502,194.817 215.335,198.15 215.5,201.5C 214.518,202.141 213.518,202.807 212.5,203.5C 211.808,202.975 211.308,202.308 211,201.5C 208.667,202.167 206.333,202.833 204,203.5C 200.572,202.604 197.072,201.938 193.5,201.5C 194.036,198.302 193.369,195.635 191.5,193.5C 190.223,192.683 189.89,194.683 190.5,199.5C 189.834,196.642 189.167,193.642 188.5,190.5C 187.513,193.768 187.18,197.102 187.5,200.5C 184.821,202.524 182.321,204.857 180,207.5C 179.5,207.333 179,207.167 178.5,207C 180.155,205.556 180.822,203.722 180.5,201.5C 181.822,201.67 182.989,201.337 184,200.5C 185.841,194.506 183.674,192.173 177.5,193.5C 177.5,197.167 177.5,200.833 177.5,204.5C 176.849,205.091 176.182,205.757 175.5,206.5C 170.55,204.327 170.55,202.993 175.5,202.5C 175.5,201.5 175.5,200.5 175.5,199.5C 175.739,197.533 175.406,195.699 174.5,194C 172.19,193.503 169.857,193.337 167.5,193.5C 167.5,196.5 167.5,199.5 167.5,202.5C 166.521,203.765 165.521,205.099 164.5,206.5C 161.621,203.733 159.121,204.067 157,207.5C 155.274,206.352 155.441,205.185 157.5,204C 155.473,204.498 153.473,204.331 151.5,203.5C 152.949,202.828 154.282,202.161 155.5,201.5C 157.25,198.276 156.25,196.442 152.5,196C 157.481,194.608 157.148,193.941 151.5,194C 150.663,195.011 150.33,196.178 150.5,197.5C 149.078,196.075 147.411,195.075 145.5,194.5C 143.283,193.631 140.95,193.298 138.5,193.5C 138.5,196.167 138.5,198.833 138.5,201.5C 137.298,200.595 135.964,200.595 134.5,201.5C 137.93,196.353 136.597,193.853 130.5,194C 128.845,195.444 128.178,197.278 128.5,199.5C 126.998,201.863 127.332,204.03 129.5,206C 126.326,206.829 125.326,205.829 126.5,203C 125.552,202.517 124.552,202.351 123.5,202.5C 123.499,206.252 121.833,207.252 118.5,205.5C 118.833,204.833 119.167,204.167 119.5,203.5C 117.861,202.678 116.195,202.011 114.5,201.5C 115.036,198.302 114.369,195.635 112.5,193.5C 113.62,189.282 113.62,185.282 112.5,181.5C 114.288,181.785 115.955,181.452 117.5,180.5C 115.604,179.534 113.604,179.201 111.5,179.5C 111.5,178.167 111.5,176.833 111.5,175.5C 118.167,174.833 118.167,174.167 111.5,173.5C 111.5,172.167 111.5,170.833 111.5,169.5C 113.604,169.799 115.604,169.466 117.5,168.5C 114.572,167.516 111.572,167.183 108.5,167.5C 108.5,172.167 108.5,176.833 108.5,181.5C 109.292,182.967 109.292,184.3 108.5,185.5C 106.712,184.717 105.712,183.384 105.5,181.5C 105.613,178.951 104.946,176.618 103.5,174.5C 106.081,172.326 106.081,170.16 103.5,168C 100.854,167.503 98.1873,167.336 95.5,167.5C 95.5,172.167 95.5,176.833 95.5,181.5C 95.3155,184.173 94.1489,184.84 92,183.5C 91.6667,184.167 91.3333,184.833 91,185.5C 89.9054,184.307 89.072,182.973 88.5,181.5C 90.1132,181.056 91.2798,180.056 92,178.5C 92.4986,174.848 92.6653,171.182 92.5,167.5C 91.5,167.5 90.5,167.5 89.5,167.5C 89.6653,171.182 89.4986,174.848 89,178.5C 87.6667,179.833 86.3333,179.833 85,178.5C 84.5014,174.848 84.3347,171.182 84.5,167.5C 83.5,167.5 82.5,167.5 81.5,167.5C 81.335,170.85 81.5017,174.183 82,177.5C 82.2321,178.737 82.7321,179.737 83.5,180.5C 82.3117,181.364 81.1451,182.364 80,183.5C 80.4759,181.68 80.3093,180.013 79.5,178.5C 78.2579,176.108 76.9245,176.275 75.5,179C 72.1734,179.513 70.5067,178.013 70.5,174.5C 71.146,169.398 73.4793,168.398 77.5,171.5C 78.3857,170.675 78.719,169.675 78.5,168.5C 80.3186,167.416 81.9853,166.082 83.5,164.5C 85.6963,166.747 87.0296,166.08 87.5,162.5C 88.8734,162.657 90.2068,162.49 91.5,162C 89.2922,161.809 87.2922,161.309 85.5,160.5C 89.8108,161.464 92.8108,159.964 94.5,156C 109.178,155.167 123.845,155.334 138.5,156.5C 140.829,160.252 144.163,161.418 148.5,160C 150.463,157.193 152.963,155.027 156,153.5C 156.736,150.408 156.569,147.408 155.5,144.5C 157.017,144.489 158.184,143.823 159,142.5C 159.671,143.252 160.504,143.586 161.5,143.5C 161.829,145.991 162.829,148.157 164.5,150C 165.784,150.684 166.951,150.517 168,149.5C 168.667,147.833 168.667,146.167 168,144.5C 165.742,141.722 165.242,138.722 166.5,135.5C 176.548,126.119 186.215,116.452 195.5,106.5 Z"/></g>
<g><path style="opacity:1" fill="#0f0f0f" d="M 303.5,108.5 C 304.167,108.5 304.833,108.5 305.5,108.5C 307.5,108.5 309.5,108.5 311.5,108.5C 312.833,108.5 314.167,108.5 315.5,108.5C 316.833,108.833 318.167,109.167 319.5,109.5C 320.167,110.833 321.167,111.833 322.5,112.5C 323.209,113.404 324.209,113.737 325.5,113.5C 325.263,114.791 325.596,115.791 326.5,116.5C 326.5,117.167 326.833,117.5 327.5,117.5C 328.441,119.05 329.107,120.716 329.5,122.5C 329.5,123.833 329.5,125.167 329.5,126.5C 329.5,127.5 329.5,128.5 329.5,129.5C 329.5,130.833 329.5,132.167 329.5,133.5C 327.503,136.825 325.503,140.159 323.5,143.5C 317.435,148.226 310.768,149.559 303.5,147.5C 301.544,146.508 299.544,145.508 297.5,144.5C 294.516,141.209 292.016,137.542 290,133.5C 288.751,127.718 289.585,122.385 292.5,117.5C 295.923,114.064 299.59,111.064 303.5,108.5 Z"/></g>
<g><path style="opacity:1" fill="#a6aead" d="M 76.5,106.5 C 77.7479,107.334 78.4146,108.667 78.5,110.5C 78.1667,111.833 77.8333,113.167 77.5,114.5C 76.52,111.914 76.1866,109.247 76.5,106.5 Z"/></g>
<g><path style="opacity:1" fill="#7e7f8a" d="M 239.5,106.5 C 240.568,105.566 241.901,105.232 243.5,105.5C 243.298,109.845 244.631,110.512 247.5,107.5C 247.66,109.199 247.494,110.866 247,112.5C 240.918,114.59 239.418,112.924 242.5,107.5C 241.675,106.614 240.675,106.281 239.5,106.5 Z"/></g>
<g><path style="opacity:1" fill="#b6b9c3" d="M 277.5,79.5 C 278.497,97.6591 278.83,115.992 278.5,134.5C 273.968,134.818 269.634,134.485 265.5,133.5C 269.5,133.5 273.5,133.5 277.5,133.5C 277.5,115.5 277.5,97.5 277.5,79.5 Z"/></g>
<g><path style="opacity:1" fill="#505050" d="M 303.5,108.5 C 299.59,111.064 295.923,114.064 292.5,117.5C 294.707,112.618 298.374,109.618 303.5,108.5 Z"/></g>
<g><path style="opacity:1" fill="#929292" d="M 311.5,100.5 C 319.984,99.507 328.651,99.1736 337.5,99.5C 337.5,103.833 337.5,108.167 337.5,112.5C 332.5,112.5 327.5,112.5 322.5,112.5C 321.167,111.833 320.167,110.833 319.5,109.5C 324.915,111.344 330.582,112.011 336.5,111.5C 336.5,108.167 336.5,104.833 336.5,101.5C 328.35,100.507 320.017,100.174 311.5,100.5 Z"/></g>
<g><path style="opacity:1" fill="#9c9c9c" d="M 343.5,115.5 C 337.729,114.887 332.396,115.554 327.5,117.5C 326.833,117.5 326.5,117.167 326.5,116.5C 328.915,115.186 331.748,114.519 335,114.5C 338.021,114.502 340.854,114.836 343.5,115.5 Z"/></g>
<g><path style="opacity:1" fill="#f9f9f9" d="M 343.5,115.5 C 344.609,115.557 345.609,115.89 346.5,116.5C 347.929,119.308 348.595,122.308 348.5,125.5C 342.5,125.5 336.5,125.5 330.5,125.5C 330.737,124.209 330.404,123.209 329.5,122.5C 329.107,120.716 328.441,119.05 327.5,117.5C 332.396,115.554 337.729,114.887 343.5,115.5 Z"/></g>
<g><path style="opacity:1" fill="#ebebeb" d="M 316.5,118.5 C 319.149,120.412 320.482,123.079 320.5,126.5C 316.041,125.796 311.708,124.963 307.5,124C 303.847,129.836 305.514,132.669 312.5,132.5C 314.479,130.832 316.812,130.166 319.5,130.5C 319.657,131.873 319.49,133.207 319,134.5C 317.624,135.705 316.458,137.038 315.5,138.5C 311.5,139.833 307.5,139.833 303.5,138.5C 301.413,137.415 300.08,135.749 299.5,133.5C 297.769,120.576 303.436,115.576 316.5,118.5 Z"/></g>
<g><path style="opacity:1" fill="#6b6c6f" d="M 160.5,101.5 C 160.5,102.167 160.833,102.5 161.5,102.5C 158.982,105.154 159.649,106.821 163.5,107.5C 163.5,105.833 163.5,104.167 163.5,102.5C 164.404,103.209 164.737,104.209 164.5,105.5C 174.915,105.192 185.249,105.525 195.5,106.5C 186.215,116.452 176.548,126.119 166.5,135.5C 165.242,138.722 165.742,141.722 168,144.5C 168.667,146.167 168.667,147.833 168,149.5C 166.951,150.517 165.784,150.684 164.5,150C 162.829,148.157 161.829,145.991 161.5,143.5C 162.828,138.712 163.495,133.546 163.5,128C 163.333,122.833 163.167,117.667 163,112.5C 159.804,110.331 156.637,108.331 153.5,106.5C 154.158,110.677 152.492,112.177 148.5,111C 147.167,109 147.167,107 148.5,105C 150.811,105.155 153.144,105.155 155.5,105C 156.695,103.148 158.362,101.981 160.5,101.5 Z"/></g>
<g><path style="opacity:1" fill="#f7f8fa" d="M 190.5,108.5 C 183.167,116.167 175.833,123.833 168.5,131.5C 166.533,123.903 165.866,115.903 166.5,107.5C 174.684,107.174 182.684,107.508 190.5,108.5 Z"/></g>
<g><path style="opacity:1" fill="#cdccd8" d="M 161.5,102.5 C 162.167,102.5 162.833,102.5 163.5,102.5C 163.5,104.167 163.5,105.833 163.5,107.5C 159.649,106.821 158.982,105.154 161.5,102.5 Z"/></g>
<g><path style="opacity:1" fill="#505156" d="M 247.5,119.5 C 247.5,120.833 247.5,122.167 247.5,123.5C 246.833,123.5 246.167,123.5 245.5,123.5C 245.5,122.167 245.5,120.833 245.5,119.5C 241.958,119.187 238.625,119.521 235.5,120.5C 234.167,121.167 234.167,121.833 235.5,122.5C 235.5,122.833 235.5,123.167 235.5,123.5C 234.5,123.5 233.5,123.5 232.5,123.5C 232.5,123.167 232.5,122.833 232.5,122.5C 232.286,120.856 232.62,119.356 233.5,118C 235.833,117.833 238.167,117.667 240.5,117.5C 243.269,117.529 245.603,118.195 247.5,119.5 Z"/></g>
<g><path style="opacity:1" fill="#8e8e8e" d="M 316.5,118.5 C 303.436,115.576 297.769,120.576 299.5,133.5C 298.883,133.389 298.383,133.056 298,132.5C 297.333,129.167 297.333,125.833 298,122.5C 300.167,120.333 302.333,118.167 304.5,116C 307.167,115.333 309.833,115.333 312.5,116C 314.32,116.2 315.653,117.034 316.5,118.5 Z"/></g>
<g><path style="opacity:1" fill="#828686" d="M 98.5,93.5 C 99.4936,102.652 99.8269,111.985 99.5,121.5C 92.3134,121.825 85.3134,121.491 78.5,120.5C 85.1667,120.5 91.8333,120.5 98.5,120.5C 98.5,111.5 98.5,102.5 98.5,93.5 Z"/></g>
<g><path style="opacity:1" fill="#f3f4f8" d="M 235.5,120.5 C 247.5,121.167 247.5,121.833 235.5,122.5C 234.167,121.833 234.167,121.167 235.5,120.5 Z"/></g>
<g><path style="opacity:1" fill="#c3c5c9" d="M 190.5,108.5 C 182.684,107.508 174.684,107.174 166.5,107.5C 165.866,115.903 166.533,123.903 168.5,131.5C 167.791,132.404 166.791,132.737 165.5,132.5C 165.5,123.833 165.5,115.167 165.5,106.5C 174.192,106.169 182.859,106.502 191.5,107.5C 191.376,108.107 191.043,108.44 190.5,108.5 Z"/></g>
<g><path style="opacity:1" fill="#9c9da5" d="M 235.5,120.5 C 238.625,119.521 241.958,119.187 245.5,119.5C 245.5,120.833 245.5,122.167 245.5,123.5C 242.167,123.5 238.833,123.5 235.5,123.5C 235.5,123.167 235.5,122.833 235.5,122.5C 247.5,121.833 247.5,121.167 235.5,120.5 Z"/></g>
<g><path style="opacity:1" fill="#a9a9a9" d="M 351.5,117.5 C 352.222,117.918 352.722,118.584 353,119.5C 353.499,123.821 353.666,128.154 353.5,132.5C 355.179,132.285 356.179,132.952 356.5,134.5C 355.167,134.167 353.833,133.833 352.5,133.5C 352.608,128.13 352.275,122.797 351.5,117.5 Z"/></g>
<g><path style="opacity:1" fill="#c3c4c3" d="M 346.5,116.5 C 349.567,119.015 350.901,122.349 350.5,126.5C 343.5,126.5 336.5,126.5 329.5,126.5C 329.5,125.167 329.5,123.833 329.5,122.5C 330.404,123.209 330.737,124.209 330.5,125.5C 336.5,125.5 342.5,125.5 348.5,125.5C 348.595,122.308 347.929,119.308 346.5,116.5 Z"/></g>
<g><path style="opacity:1" fill="#6d6e73" d="M 195.5,106.5 C 203.984,105.507 212.651,105.174 221.5,105.5C 222.167,105.5 222.833,105.5 223.5,105.5C 224.167,105.5 224.833,105.5 225.5,105.5C 226.167,105.5 226.833,105.5 227.5,105.5C 231.179,105.06 234.512,105.727 237.5,107.5C 233.167,112.5 228.5,117.167 223.5,121.5C 222.599,122.29 221.932,123.29 221.5,124.5C 221.5,132.167 221.5,139.833 221.5,147.5C 220.671,140.679 220.171,133.679 220,126.5C 216.034,129.464 212.367,132.797 209,136.5C 208.333,137.833 208.333,139.167 209,140.5C 210.404,142.394 211.57,144.394 212.5,146.5C 211.304,149.138 209.304,149.971 206.5,149C 204.491,146.539 204.324,144.039 206,141.5C 206.5,129.838 206.667,118.171 206.5,106.5C 202.833,106.5 199.167,106.5 195.5,106.5 Z"/></g>
<g><path style="opacity:1" fill="#f2f3f5" d="M 208.5,106.5 C 217.192,106.169 225.859,106.502 234.5,107.5C 226.181,116.319 217.681,124.986 209,133.5C 208.5,124.506 208.334,115.506 208.5,106.5 Z"/></g>
<g><path style="opacity:1" fill="#878e8c" d="M 76.5,123.5 C 84.1667,123.5 91.8333,123.5 99.5,123.5C 99.824,130.354 99.4907,137.021 98.5,143.5C 98.5,137.167 98.5,130.833 98.5,124.5C 90.9809,124.825 83.6476,124.492 76.5,123.5 Z"/></g>
<g><path style="opacity:1" fill="#3c3c3c" d="M 305.5,85.5 C 307.042,86.3007 308.708,86.634 310.5,86.5C 310.185,90.3714 310.518,94.0381 311.5,97.5C 324.031,98.0208 333.364,98.6875 339.5,99.5C 339.5,103.833 339.5,108.167 339.5,112.5C 341.167,112.5 342.833,112.5 344.5,112.5C 347.093,113.754 349.427,115.42 351.5,117.5C 352.275,122.797 352.608,128.13 352.5,133.5C 351.5,133.5 350.5,133.5 349.5,133.5C 350.234,132.292 350.567,130.959 350.5,129.5C 343.5,129.5 336.5,129.5 329.5,129.5C 329.5,128.5 329.5,127.5 329.5,126.5C 336.5,126.5 343.5,126.5 350.5,126.5C 350.901,122.349 349.567,119.015 346.5,116.5C 345.609,115.89 344.609,115.557 343.5,115.5C 340.854,114.836 338.021,114.502 335,114.5C 331.748,114.519 328.915,115.186 326.5,116.5C 325.596,115.791 325.263,114.791 325.5,113.5C 324.209,113.737 323.209,113.404 322.5,112.5C 327.5,112.5 332.5,112.5 337.5,112.5C 337.5,108.167 337.5,103.833 337.5,99.5C 328.651,99.1736 319.984,99.507 311.5,100.5C 310.233,103.061 310.233,105.728 311.5,108.5C 309.5,108.5 307.5,108.5 305.5,108.5C 306.209,107.596 307.209,107.263 308.5,107.5C 308.5,101.5 308.5,95.5 308.5,89.5C 307.5,89.5 306.5,89.5 305.5,89.5C 303.167,89.5 300.833,89.5 298.5,89.5C 298.5,88.1667 298.5,86.8333 298.5,85.5C 300.833,85.5 303.167,85.5 305.5,85.5 Z"/></g>
<g><path style="opacity:1" fill="#c0c0c0" d="M 311.5,100.5 C 320.017,100.174 328.35,100.507 336.5,101.5C 328.5,101.5 320.5,101.5 312.5,101.5C 312.5,103.5 312.5,105.5 312.5,107.5C 313.791,107.263 314.791,107.596 315.5,108.5C 314.167,108.5 312.833,108.5 311.5,108.5C 310.233,105.728 310.233,103.061 311.5,100.5 Z"/></g>
<g><path style="opacity:1" fill="#f7f6f7" d="M 109.5,127.5 C 110.812,129.743 111.478,132.41 111.5,135.5C 111.167,138.167 110.833,140.833 110.5,143.5C 109.505,138.208 109.172,132.875 109.5,127.5 Z"/></g>
<g><path style="opacity:1" fill="#8f8f8f" d="M 315.5,138.5 C 316.458,137.038 317.624,135.705 319,134.5C 319.49,133.207 319.657,131.873 319.5,130.5C 316.812,130.166 314.479,130.832 312.5,132.5C 312.511,130.983 313.177,129.816 314.5,129C 316.81,128.503 319.143,128.337 321.5,128.5C 322.026,133.463 320.026,136.796 315.5,138.5 Z"/></g>
<g><path style="opacity:1" fill="#9899ab" d="M 247.5,119.5 C 248.404,120.209 248.737,121.209 248.5,122.5C 252.329,121.931 255.663,122.598 258.5,124.5C 257.292,123.766 255.959,123.433 254.5,123.5C 254.5,131.833 254.5,140.167 254.5,148.5C 255.5,148.5 256.5,148.5 257.5,148.5C 257.389,149.117 257.056,149.617 256.5,150C 247.506,150.5 238.506,150.666 229.5,150.5C 228.833,150.5 228.5,150.167 228.5,149.5C 236.167,149.5 243.833,149.5 251.5,149.5C 251.826,140.651 251.493,131.984 250.5,123.5C 249.5,123.5 248.5,123.5 247.5,123.5C 247.5,122.167 247.5,120.833 247.5,119.5 Z"/></g>
<g><path style="opacity:1" fill="#0d0d0d" d="M 349.5,133.5 C 350.5,133.5 351.5,133.5 352.5,133.5C 353.833,133.833 355.167,134.167 356.5,134.5C 356.833,135.5 357.5,136.167 358.5,136.5C 359.258,141.271 357.925,145.271 354.5,148.5C 352.5,148.5 350.5,148.5 348.5,148.5C 344.464,144.961 343.464,140.628 345.5,135.5C 346.183,133.824 347.517,133.157 349.5,133.5 Z"/></g>
<g><path style="opacity:1" fill="#c8cbcc" d="M 120.5,127.5 C 121.5,127.5 122.5,127.5 123.5,127.5C 123.5,132.833 123.5,138.167 123.5,143.5C 122.5,143.5 121.5,143.5 120.5,143.5C 120.5,138.167 120.5,132.833 120.5,127.5 Z"/></g>
<g><path style="opacity:1" fill="#262738" d="M 221.5,148.5 C 221.5,148.167 221.5,147.833 221.5,147.5C 221.5,139.833 221.5,132.167 221.5,124.5C 222.583,124.461 223.583,124.127 224.5,123.5C 225.498,131.807 225.831,140.14 225.5,148.5C 224.167,148.5 222.833,148.5 221.5,148.5 Z"/></g>
<g><path style="opacity:1" fill="#979797" d="M 329.5,133.5 C 329.547,138.075 327.547,141.408 323.5,143.5C 325.503,140.159 327.503,136.825 329.5,133.5 Z"/></g>
<g><path style="opacity:1" fill="#9798ab" d="M 223.5,121.5 C 226.287,122.477 229.287,122.81 232.5,122.5C 232.5,122.833 232.5,123.167 232.5,123.5C 231.167,123.5 229.833,123.5 228.5,123.5C 228.5,131.833 228.5,140.167 228.5,148.5C 228.5,148.833 228.5,149.167 228.5,149.5C 225.828,151.044 223.495,150.711 221.5,148.5C 222.833,148.5 224.167,148.5 225.5,148.5C 225.831,140.14 225.498,131.807 224.5,123.5C 223.583,124.127 222.583,124.461 221.5,124.5C 221.932,123.29 222.599,122.29 223.5,121.5 Z"/></g>
<g><path style="opacity:1" fill="#26273b" d="M 232.5,123.5 C 233.5,123.5 234.5,123.5 235.5,123.5C 238.833,123.5 242.167,123.5 245.5,123.5C 246.167,123.5 246.833,123.5 247.5,123.5C 248.5,123.5 249.5,123.5 250.5,123.5C 250.785,125.288 250.452,126.955 249.5,128.5C 243.484,125.904 237.484,125.904 231.5,128.5C 230.191,132.649 230.191,136.649 231.5,140.5C 232.885,142.883 234.885,144.55 237.5,145.5C 239.369,146.165 241.369,146.831 243.5,147.5C 238.544,148.494 233.544,148.827 228.5,148.5C 228.5,140.167 228.5,131.833 228.5,123.5C 229.833,123.5 231.167,123.5 232.5,123.5 Z"/></g>
<g><path style="opacity:1" fill="#c9ccd1" d="M 265.5,136.5 C 269.5,136.5 273.5,136.5 277.5,136.5C 276.707,141.776 273.707,143.609 268.5,142C 267.242,140.259 266.242,138.426 265.5,136.5 Z"/></g>
<g><path style="opacity:1" fill="#616161" d="M 303.5,138.5 C 307.5,139.833 311.5,139.833 315.5,138.5C 315.389,139.117 315.056,139.617 314.5,140C 311.167,140.667 307.833,140.667 304.5,140C 303.944,139.617 303.611,139.117 303.5,138.5 Z"/></g>
<g><path style="opacity:1" fill="#d9dbe7" d="M 237.5,145.5 C 234.885,144.55 232.885,142.883 231.5,140.5C 230.129,128.652 235.129,124.819 246.5,129C 252.021,139.002 249.021,144.502 237.5,145.5 Z"/></g>
<g><path style="opacity:1" fill="#82858e" d="M 245.5,134.5 C 246.434,135.568 246.768,136.901 246.5,138.5C 245.167,138.5 243.833,138.5 242.5,138.5C 242.5,140.167 242.5,141.833 242.5,143.5C 240.833,143.5 239.167,143.5 237.5,143.5C 237.5,141.833 237.5,140.167 237.5,138.5C 238.434,139.568 238.768,140.901 238.5,142.5C 239.5,142.5 240.5,142.5 241.5,142.5C 241.5,140.833 241.5,139.167 241.5,137.5C 242.833,137.5 244.167,137.5 245.5,137.5C 245.5,136.5 245.5,135.5 245.5,134.5 Z"/></g>
<g><path style="opacity:1" fill="#313445" d="M 245.5,134.5 C 245.5,135.5 245.5,136.5 245.5,137.5C 244.167,137.5 242.833,137.5 241.5,137.5C 241.5,139.167 241.5,140.833 241.5,142.5C 240.5,142.5 239.5,142.5 238.5,142.5C 238.768,140.901 238.434,139.568 237.5,138.5C 236.167,138.5 234.833,138.5 233.5,138.5C 233.5,136.833 233.5,135.167 233.5,133.5C 234.833,133.5 236.167,133.5 237.5,133.5C 237.5,132.167 237.5,130.833 237.5,129.5C 239.167,129.5 240.833,129.5 242.5,129.5C 242.5,131.167 242.5,132.833 242.5,134.5C 243.5,134.5 244.5,134.5 245.5,134.5 Z"/></g>
<g><path style="opacity:1" fill="#3e3f51" d="M 250.5,123.5 C 251.493,131.984 251.826,140.651 251.5,149.5C 243.833,149.5 236.167,149.5 228.5,149.5C 228.5,149.167 228.5,148.833 228.5,148.5C 233.544,148.827 238.544,148.494 243.5,147.5C 241.369,146.831 239.369,146.165 237.5,145.5C 249.021,144.502 252.021,139.002 246.5,129C 235.129,124.819 230.129,128.652 231.5,140.5C 230.191,136.649 230.191,132.649 231.5,128.5C 237.484,125.904 243.484,125.904 249.5,128.5C 250.452,126.955 250.785,125.288 250.5,123.5 Z"/></g>
<g><path style="opacity:1" fill="#707070" d="M 297.5,144.5 C 299.544,145.508 301.544,146.508 303.5,147.5C 300.687,147.975 298.687,146.975 297.5,144.5 Z"/></g>
<g><path style="opacity:1" fill="#747474" d="M 345.5,135.5 C 343.464,140.628 344.464,144.961 348.5,148.5C 346.629,148.141 345.129,147.141 344,145.5C 343.333,142.5 343.333,139.5 344,136.5C 344.383,135.944 344.883,135.611 345.5,135.5 Z"/></g>
<g><path style="opacity:1" fill="#343548" d="M 258.5,124.5 C 259.492,131.982 259.825,139.648 259.5,147.5C 258.833,147.833 258.167,148.167 257.5,148.5C 256.5,148.5 255.5,148.5 254.5,148.5C 254.5,140.167 254.5,131.833 254.5,123.5C 255.959,123.433 257.292,123.766 258.5,124.5 Z"/></g>
<g><path style="opacity:1" fill="#aeaeae" d="M 358.5,136.5 C 359.482,139.962 359.815,143.629 359.5,147.5C 357.784,147.629 356.117,147.962 354.5,148.5C 357.925,145.271 359.258,141.271 358.5,136.5 Z"/></g>
<g><path style="opacity:1" fill="#f8f9f9" d="M 78.5,146.5 C 103.5,146.5 128.5,146.5 153.5,146.5C 153.5,148.5 153.5,150.5 153.5,152.5C 128.5,152.5 103.5,152.5 78.5,152.5C 78.5,150.5 78.5,148.5 78.5,146.5 Z"/></g>
<g><path style="opacity:1" fill="#c3c5c9" d="M 265.5,144.5 C 266.161,145.718 266.828,147.051 267.5,148.5C 271.167,147.167 274.833,147.167 278.5,148.5C 279.057,146.668 280.057,145.335 281.5,144.5C 281.09,146.854 280.09,148.854 278.5,150.5C 276.979,149.063 275.145,148.396 273,148.5C 269.933,149.395 266.933,150.395 264,151.5C 264.437,149.243 264.937,146.91 265.5,144.5 Z"/></g>
<g><path style="opacity:1" fill="#cacfce" d="M 84.5,155.5 C 86.8568,155.337 89.1902,155.503 91.5,156C 88.7828,159.357 86.4494,159.19 84.5,155.5 Z"/></g>
<g><path style="opacity:1" fill="#cad0ce" d="M 141.5,155.5 C 143.857,155.337 146.19,155.503 148.5,156C 145.783,159.357 143.449,159.19 141.5,155.5 Z"/></g>
<g><path style="opacity:1" fill="#22181b" d="M 105.5,181.5 C 104.624,181.631 103.957,181.298 103.5,180.5C 103.322,177.196 101.656,175.529 98.5,175.5C 98.5,177.5 98.5,179.5 98.5,181.5C 97.5,181.5 96.5,181.5 95.5,181.5C 95.5,176.833 95.5,172.167 95.5,167.5C 98.1873,167.336 100.854,167.503 103.5,168C 106.081,170.16 106.081,172.326 103.5,174.5C 104.946,176.618 105.613,178.951 105.5,181.5 Z"/></g>
<g><path style="opacity:1" fill="#1a1318" d="M 112.5,181.5 C 111.167,181.5 109.833,181.5 108.5,181.5C 108.5,176.833 108.5,172.167 108.5,167.5C 111.572,167.183 114.572,167.516 117.5,168.5C 115.604,169.466 113.604,169.799 111.5,169.5C 111.5,170.833 111.5,172.167 111.5,173.5C 118.167,174.167 118.167,174.833 111.5,175.5C 111.5,176.833 111.5,178.167 111.5,179.5C 113.604,179.201 115.604,179.534 117.5,180.5C 115.955,181.452 114.288,181.785 112.5,181.5 Z"/></g>
<g><path style="opacity:1" fill="#191019" d="M 135.5,167.5 C 142.88,167.043 145.713,170.376 144,177.5C 140.74,182.285 137.073,182.619 133,178.5C 131.812,174.259 132.645,170.592 135.5,167.5 Z"/></g>
<g><path style="opacity:1" fill="#16050c" d="M 310.5,168.5 C 310.784,170.415 310.451,172.081 309.5,173.5C 309.833,170.5 308.5,169.167 305.5,169.5C 304.205,173.267 303.539,177.267 303.5,181.5C 302.514,177.03 302.181,172.363 302.5,167.5C 305.279,167.279 307.946,167.612 310.5,168.5 Z"/></g>
<g><path style="opacity:1" fill="#080109" d="M 167.5,167.5 C 170.898,167.18 174.232,167.513 177.5,168.5C 176.311,169.429 174.978,169.762 173.5,169.5C 172.833,185.5 172.167,185.5 171.5,169.5C 169.517,169.843 168.183,169.176 167.5,167.5 Z"/></g>
<g><path style="opacity:1" fill="#171116" d="M 277.5,167.5 C 279.792,167.244 281.959,167.577 284,168.5C 284.688,169.332 284.521,169.998 283.5,170.5C 281.929,169.691 280.262,169.357 278.5,169.5C 278.33,170.822 278.663,171.989 279.5,173C 283.953,173.111 285.787,175.277 285,179.5C 281.457,182.38 278.29,182.047 275.5,178.5C 275.833,178.167 276.167,177.833 276.5,177.5C 278.173,179.086 280.173,179.753 282.5,179.5C 282.67,178.178 282.337,177.011 281.5,176C 275.433,175.167 274.1,172.333 277.5,167.5 Z"/></g>
<g><path style="opacity:1" fill="#24171c" d="M 184.5,167.5 C 185.833,167.5 187.167,167.5 188.5,167.5C 189.656,178.812 191.656,179.145 194.5,168.5C 195.689,167.571 197.022,167.238 198.5,167.5C 198.5,172.167 198.5,176.833 198.5,181.5C 197.5,181.5 196.5,181.5 195.5,181.5C 195.664,178.813 195.497,176.146 195,173.5C 194.131,176.33 192.964,178.997 191.5,181.5C 189.541,178.829 188.041,175.829 187,172.5C 186.821,175.553 186.321,178.553 185.5,181.5C 184.507,176.88 184.173,172.214 184.5,167.5 Z"/></g>
<g><path style="opacity:1" fill="#2c1e23" d="M 163.5,167.5 C 163.226,172.263 163.559,176.93 164.5,181.5C 161.195,179.346 158.695,176.346 157,172.5C 156.502,175.482 156.335,178.482 156.5,181.5C 155.5,181.5 154.5,181.5 153.5,181.5C 153.5,176.833 153.5,172.167 153.5,167.5C 154.978,167.238 156.311,167.571 157.5,168.5C 159.253,171.005 160.753,173.671 162,176.5C 162.181,173.305 162.681,170.305 163.5,167.5 Z"/></g>
<g><path style="opacity:1" fill="#f6e5c9" d="M 327.5,167.5 C 327.5,172.167 327.5,176.833 327.5,181.5C 325.278,181.441 324.278,180.275 324.5,178C 324.65,174.014 325.65,170.514 327.5,167.5 Z"/></g>
<g><path style="opacity:1" fill="#e2dfc9" d="M 98.5,169.5 C 99.8333,169.5 101.167,169.5 102.5,169.5C 102.5,170.833 102.5,172.167 102.5,173.5C 101.167,173.5 99.8333,173.5 98.5,173.5C 98.5,172.167 98.5,170.833 98.5,169.5 Z"/></g>
<g><path style="opacity:1" fill="#20161d" d="M 250.5,167.5 C 251.978,167.238 253.311,167.571 254.5,168.5C 256.242,172.725 257.576,177.059 258.5,181.5C 257.5,181.5 256.5,181.5 255.5,181.5C 255.5,180.5 255.5,179.5 255.5,178.5C 252.254,178.135 249.588,179.135 247.5,181.5C 247.167,181 246.833,180.5 246.5,180C 247.94,175.846 249.274,171.68 250.5,167.5 Z"/></g>
<g><path style="opacity:1" fill="#0c2145" d="M 163.5,167.5 C 164.805,169.397 165.471,171.731 165.5,174.5C 165.497,177.025 165.163,179.359 164.5,181.5C 163.559,176.93 163.226,172.263 163.5,167.5 Z"/></g>
<g><path style="opacity:1" fill="#211719" d="M 201.5,167.5 C 204.572,167.183 207.572,167.516 210.5,168.5C 208.604,169.466 206.604,169.799 204.5,169.5C 204.5,170.833 204.5,172.167 204.5,173.5C 211.167,174.167 211.167,174.833 204.5,175.5C 204.5,176.833 204.5,178.167 204.5,179.5C 206.924,179.192 209.257,179.526 211.5,180.5C 208.232,181.487 204.898,181.82 201.5,181.5C 201.5,176.833 201.5,172.167 201.5,167.5 Z"/></g>
<g><path style="opacity:1" fill="#d2d9d5" d="M 251.5,171.5 C 253.085,172.474 254.085,173.974 254.5,176C 253.056,176.781 251.723,176.614 250.5,175.5C 251.246,174.264 251.579,172.93 251.5,171.5 Z"/></g>
<g><path style="opacity:1" fill="#14141d" d="M 344.5,167.5 C 347.572,167.183 350.572,167.516 353.5,168.5C 351.604,169.466 349.604,169.799 347.5,169.5C 347.5,170.833 347.5,172.167 347.5,173.5C 354.167,174.167 354.167,174.833 347.5,175.5C 347.5,176.833 347.5,178.167 347.5,179.5C 349.604,179.201 351.604,179.534 353.5,180.5C 350.572,181.484 347.572,181.817 344.5,181.5C 344.5,176.833 344.5,172.167 344.5,167.5 Z"/></g>
<g><path style="opacity:1" fill="#171319" d="M 357.5,167.5 C 360.157,167.162 362.49,167.829 364.5,169.5C 362.674,169.92 360.674,169.92 358.5,169.5C 358.33,170.822 358.663,171.989 359.5,173C 363.953,173.111 365.787,175.277 365,179.5C 361.58,182.334 358.413,182.168 355.5,179C 355.833,178.5 356.167,178 356.5,177.5C 358.641,180.019 360.641,180.019 362.5,177.5C 360.434,176.094 358.268,174.76 356,173.5C 355.252,171.16 355.752,169.16 357.5,167.5 Z"/></g>
<g><path style="opacity:1" fill="#100209" d="M 338.5,167.5 C 339.805,169.397 340.471,171.731 340.5,174.5C 340.167,176.833 339.833,179.167 339.5,181.5C 338.507,176.88 338.173,172.214 338.5,167.5 Z"/></g>
<g><path style="opacity:1" fill="#223245" d="M 310.5,168.5 C 312.719,170.065 313.052,172.065 311.5,174.5C 309.827,176.086 307.827,176.753 305.5,176.5C 305.923,178.781 305.256,180.448 303.5,181.5C 303.539,177.267 304.205,173.267 305.5,169.5C 305.5,171.167 305.5,172.833 305.5,174.5C 306.959,174.567 308.292,174.234 309.5,173.5C 310.451,172.081 310.784,170.415 310.5,168.5 Z"/></g>
<g><path style="opacity:1" fill="#f0e2d0" d="M 305.5,169.5 C 308.5,169.167 309.833,170.5 309.5,173.5C 308.292,174.234 306.959,174.567 305.5,174.5C 305.5,172.833 305.5,171.167 305.5,169.5 Z"/></g>
<g><path style="opacity:1" fill="#271d1f" d="M 314.5,167.5 C 318.007,166.994 321.174,167.66 324,169.5C 325.167,174.835 323,177.169 317.5,176.5C 317.5,178.167 317.5,179.833 317.5,181.5C 316.5,181.5 315.5,181.5 314.5,181.5C 314.5,176.833 314.5,172.167 314.5,167.5 Z"/></g>
<g><path style="opacity:1" fill="#dff0e7" d="M 317.5,169.5 C 321.161,169.35 322.161,170.85 320.5,174C 319.552,174.483 318.552,174.649 317.5,174.5C 317.5,172.833 317.5,171.167 317.5,169.5 Z"/></g>
<g><path style="opacity:1" fill="#090107" d="M 327.5,167.5 C 329.423,171.029 330.089,175.029 329.5,179.5C 331.604,179.201 333.604,179.534 335.5,180.5C 332.914,181.48 330.247,181.813 327.5,181.5C 327.5,176.833 327.5,172.167 327.5,167.5 Z"/></g>
<g><path style="opacity:1" fill="#1e1718" d="M 78.5,168.5 C 78.719,169.675 78.3857,170.675 77.5,171.5C 73.4793,168.398 71.146,169.398 70.5,174.5C 70.5067,178.013 72.1734,179.513 75.5,179C 76.9245,176.275 78.2579,176.108 79.5,178.5C 76.3929,182.015 72.8929,182.348 69,179.5C 65.6993,170.073 68.866,166.406 78.5,168.5 Z"/></g>
<g><path style="opacity:1" fill="#0f0711" d="M 120.5,167.5 C 127.9,165.825 130.567,168.492 128.5,175.5C 126.591,176.348 124.591,176.682 122.5,176.5C 122.785,178.288 122.452,179.955 121.5,181.5C 120.507,176.88 120.173,172.214 120.5,167.5 Z"/></g>
<g><path style="opacity:1" fill="#dcd8ce" d="M 122.5,169.5 C 126.676,168.831 128.009,170.331 126.5,174C 125.207,174.49 123.873,174.657 122.5,174.5C 122.5,172.833 122.5,171.167 122.5,169.5 Z"/></g>
<g><path style="opacity:1" fill="#e7ece8" d="M 136.5,169.5 C 140.134,169.157 141.801,170.823 141.5,174.5C 141.021,179.487 138.854,180.487 135,177.5C 134.109,174.502 134.609,171.836 136.5,169.5 Z"/></g>
<g><path style="opacity:1" fill="#34242f" d="M 147.5,167.5 C 148.5,167.5 149.5,167.5 150.5,167.5C 150.5,172.167 150.5,176.833 150.5,181.5C 149.5,181.5 148.5,181.5 147.5,181.5C 147.5,176.833 147.5,172.167 147.5,167.5 Z"/></g>
<g><path style="opacity:1" fill="#24171f" d="M 213.5,167.5 C 224.192,166.094 227.525,170.261 223.5,180C 220.312,181.316 216.978,181.816 213.5,181.5C 213.5,176.833 213.5,172.167 213.5,167.5 Z"/></g>
<g><path style="opacity:1" fill="#f2f4ec" d="M 216.5,169.5 C 220.338,169.007 222.338,170.674 222.5,174.5C 222.338,178.326 220.338,179.993 216.5,179.5C 216.5,176.167 216.5,172.833 216.5,169.5 Z"/></g>
<g><path style="opacity:1" fill="#2a1c1f" d="M 88.5,181.5 C 86.7085,181.634 85.0418,181.301 83.5,180.5C 82.7321,179.737 82.2321,178.737 82,177.5C 81.5017,174.183 81.335,170.85 81.5,167.5C 82.5,167.5 83.5,167.5 84.5,167.5C 84.3347,171.182 84.5014,174.848 85,178.5C 86.3333,179.833 87.6667,179.833 89,178.5C 89.4986,174.848 89.6653,171.182 89.5,167.5C 90.5,167.5 91.5,167.5 92.5,167.5C 92.6653,171.182 92.4986,174.848 92,178.5C 91.2798,180.056 90.1132,181.056 88.5,181.5 Z"/></g>
<g><path style="opacity:1" fill="#100a14" d="M 288.5,167.5 C 290.26,170.701 291.094,174.367 291,178.5C 292.667,179.833 294.333,179.833 296,178.5C 296.175,174.789 296.675,171.122 297.5,167.5C 298.66,171.459 298.827,175.459 298,179.5C 295,182.167 292,182.167 289,179.5C 288.501,175.514 288.334,171.514 288.5,167.5 Z"/></g>
<g><path style="opacity:1" fill="#0b030e" d="M 228.5,167.5 C 229.805,169.397 230.471,171.731 230.5,174.5C 230.167,176.833 229.833,179.167 229.5,181.5C 228.507,176.88 228.173,172.214 228.5,167.5 Z"/></g>
<g><path style="opacity:1" fill="#1b1518" d="M 238.5,167.5 C 241.056,167.132 243.056,167.966 244.5,170C 244.167,170.5 243.833,171 243.5,171.5C 237.689,168.794 235.523,170.794 237,177.5C 239.632,180.192 241.966,179.859 244,176.5C 244.5,177 245,177.5 245.5,178C 244.635,179.359 243.635,180.526 242.5,181.5C 238.645,182.155 235.812,180.821 234,177.5C 232.558,172.723 234.058,169.39 238.5,167.5 Z"/></g>
<g><path style="opacity:1" fill="#251a25" d="M 260.5,167.5 C 261.5,167.5 262.5,167.5 263.5,167.5C 263.5,171.5 263.5,175.5 263.5,179.5C 265.604,179.201 267.604,179.534 269.5,180.5C 266.572,181.484 263.572,181.817 260.5,181.5C 260.5,176.833 260.5,172.167 260.5,167.5 Z"/></g>
<g><path style="opacity:1" fill="#4a6e8a" d="M 250.5,190.5 C 254.971,190.672 255.304,191.506 251.5,193C 252.167,193.333 252.833,193.667 253.5,194C 252.029,196.243 251.029,198.743 250.5,201.5C 249.242,197.79 249.242,194.123 250.5,190.5 Z"/></g>
<g><path style="opacity:1" fill="#497c9a" d="M 218.5,201.5 C 217.5,201.5 216.5,201.5 215.5,201.5C 215.335,198.15 215.502,194.817 216,191.5C 217.494,190.253 218.994,190.253 220.5,191.5C 219.624,192.251 218.624,192.751 217.5,193C 218.624,193.249 219.624,193.749 220.5,194.5C 218.827,196.523 218.16,198.856 218.5,201.5 Z"/></g>
<g><path style="opacity:1" fill="#4a81a2" d="M 79.5,191.5 C 82.1194,191.232 84.6194,191.565 87,192.5C 88.1772,196.492 86.6772,198.158 82.5,197.5C 82.5,198.833 82.5,200.167 82.5,201.5C 81.5,201.5 80.5,201.5 79.5,201.5C 79.5,198.167 79.5,194.833 79.5,191.5 Z"/></g>
<g><path style="opacity:1" fill="#2d749c" d="M 89.5,193.5 C 91.288,193.215 92.9547,193.548 94.5,194.5C 93.675,195.386 92.675,195.719 91.5,195.5C 91.7989,197.604 91.4656,199.604 90.5,201.5C 89.52,198.914 89.1866,196.247 89.5,193.5 Z"/></g>
<g><path style="opacity:1" fill="#3b6f8c" d="M 117.5,193.5 C 123.176,193.947 123.509,194.781 118.5,196C 122.13,196.271 123.13,197.938 121.5,201C 115.852,201.059 115.519,200.392 120.5,199C 117.095,198.247 116.095,196.414 117.5,193.5 Z"/></g>
<g><path style="opacity:1" fill="#247199" d="M 180.5,201.5 C 179.9,202.9 178.9,203.9 177.5,204.5C 177.5,200.833 177.5,197.167 177.5,193.5C 183.674,192.173 185.841,194.506 184,200.5C 182.989,201.337 181.822,201.67 180.5,201.5 Z"/></g>
<g><path style="opacity:1" fill="#3f7b99" d="M 313.5,192.5 C 315.375,195.908 314.375,198.074 310.5,199C 311.833,199.333 313.167,199.667 314.5,200C 315.925,201.714 315.592,203.047 313.5,204C 307.412,205.157 306.079,203.157 309.5,198C 308.483,196.951 308.316,195.784 309,194.5C 310.622,193.901 312.122,193.234 313.5,192.5 Z"/></g>
<g><path style="opacity:1" fill="#35758f" d="M 321.5,193.5 C 323.429,193.231 325.095,193.731 326.5,195C 324.381,195.098 322.714,195.931 321.5,197.5C 322.62,199.596 324.12,199.93 326,198.5C 326.617,199.449 326.451,200.282 325.5,201C 319.403,201.147 318.07,198.647 321.5,193.5 Z"/></g>
<g><path style="opacity:1" fill="#3f7792" d="M 329.5,193.5 C 331.144,193.286 332.644,193.62 334,194.5C 334.311,196.556 334.811,198.556 335.5,200.5C 333.235,201.647 330.902,201.814 328.5,201C 327.663,199.989 327.33,198.822 327.5,197.5C 329.308,197.509 330.975,197.009 332.5,196C 331.167,195.667 329.833,195.333 328.5,195C 329.056,194.617 329.389,194.117 329.5,193.5 Z"/></g>
<g><path style="opacity:1" fill="#357a9c" d="M 145.5,194.5 C 145.808,196.924 145.474,199.257 144.5,201.5C 143.534,199.604 143.201,197.604 143.5,195.5C 142.5,195.5 141.5,195.5 140.5,195.5C 140.975,198.082 140.308,200.082 138.5,201.5C 138.5,198.833 138.5,196.167 138.5,193.5C 140.95,193.298 143.283,193.631 145.5,194.5 Z"/></g>
<g><path style="opacity:1" fill="#457893" d="M 197.5,193.5 C 201.138,192.737 202.638,194.07 202,197.5C 197.335,198.739 197.502,199.572 202.5,200C 200.191,202.051 198.024,201.884 196,199.5C 195.252,197.16 195.752,195.16 197.5,193.5 Z"/></g>
<g><path style="opacity:1" fill="#3b6c87" d="M 205.5,193.5 C 211.176,193.947 211.509,194.781 206.5,196C 209.706,196.625 210.706,198.291 209.5,201C 203.852,201.059 203.519,200.392 208.5,199C 205.095,198.247 204.095,196.414 205.5,193.5 Z"/></g>
<g><path style="opacity:1" fill="#36769d" d="M 223.5,193.5 C 229.488,193.664 230.821,196.164 227.5,201C 223.798,202.393 221.798,201.226 221.5,197.5C 221.803,195.886 222.47,194.552 223.5,193.5 Z"/></g>
<g><path style="opacity:1" fill="#3e7187" d="M 155.5,201.5 C 149.824,201.053 149.491,200.219 154.5,199C 153.437,197.812 152.103,197.312 150.5,197.5C 150.33,196.178 150.663,195.011 151.5,194C 157.148,193.941 157.481,194.608 152.5,196C 156.25,196.442 157.25,198.276 155.5,201.5 Z"/></g>
<g><path style="opacity:1" fill="#eef6e7" d="M 179.5,195.5 C 180.5,195.5 181.5,195.5 182.5,195.5C 182.5,196.833 182.5,198.167 182.5,199.5C 181.5,199.5 180.5,199.5 179.5,199.5C 179.5,198.167 179.5,196.833 179.5,195.5 Z"/></g>
<g><path style="opacity:1" fill="#e9f8f3" d="M 223.5,195.5 C 224.5,195.5 225.5,195.5 226.5,195.5C 226.5,196.833 226.5,198.167 226.5,199.5C 225.5,199.5 224.5,199.5 223.5,199.5C 223.5,198.167 223.5,196.833 223.5,195.5 Z"/></g>
<g><path style="opacity:1" fill="#296c8f" d="M 240.5,190.5 C 242.23,193.39 243.23,196.724 243.5,200.5C 242.575,201.562 241.575,201.562 240.5,200.5C 240.5,197.167 240.5,193.833 240.5,190.5 Z"/></g>
<g><path style="opacity:1" fill="#466f95" d="M 263.5,195.5 C 264.978,195.238 266.311,195.571 267.5,196.5C 266.833,196.833 266.167,197.167 265.5,197.5C 264.287,197.253 263.62,196.586 263.5,195.5 Z"/></g>
<g><path style="opacity:1" fill="#36708f" d="M 270.5,193.5 C 276.176,193.947 276.509,194.781 271.5,196C 274.706,196.625 275.706,198.291 274.5,201C 268.852,201.059 268.519,200.392 273.5,199C 270.095,198.247 269.095,196.414 270.5,193.5 Z"/></g>
<g><path style="opacity:1" fill="#50748a" d="M 298.5,193.5 C 305.5,191.833 308.167,194.5 306.5,201.5C 305.5,201.5 304.5,201.5 303.5,201.5C 302.919,193.768 301.585,193.768 299.5,201.5C 298.52,198.914 298.187,196.247 298.5,193.5 Z"/></g>
<g><path style="opacity:1" fill="#286c83" d="M 112.5,193.5 C 114.369,195.635 115.036,198.302 114.5,201.5C 112.631,199.365 111.964,196.698 112.5,193.5 Z"/></g>
<g><path style="opacity:1" fill="#4a6e79" d="M 124.5,193.5 C 125.748,194.334 126.415,195.667 126.5,197.5C 126.167,198.833 125.833,200.167 125.5,201.5C 124.52,198.914 124.187,196.247 124.5,193.5 Z"/></g>
<g><path style="opacity:1" fill="#356b92" d="M 158.5,193.5 C 160.308,194.918 160.975,196.918 160.5,199.5C 161.5,199.5 162.5,199.5 163.5,199.5C 163.201,197.396 163.534,195.396 164.5,193.5C 165.48,196.086 165.813,198.753 165.5,201.5C 159.095,202.594 156.762,199.927 158.5,193.5 Z"/></g>
<g><path style="opacity:1" fill="#11719f" d="M 245.5,193.5 C 246.748,194.334 247.415,195.667 247.5,197.5C 247.167,198.833 246.833,200.167 246.5,201.5C 245.52,198.914 245.187,196.247 245.5,193.5 Z"/></g>
<g><path style="opacity:1" fill="#487e9b" d="M 96.5,193.5 C 98.4672,193.261 100.301,193.594 102,194.5C 102.286,196.999 102.119,199.165 101.5,201C 95.5933,201.746 93.9267,199.246 96.5,193.5 Z"/></g>
<g><path style="opacity:1" fill="#426d8a" d="M 105.5,193.5 C 107.429,193.231 109.095,193.731 110.5,195C 108.381,195.098 106.714,195.931 105.5,197.5C 106.62,199.596 108.12,199.93 110,198.5C 110.617,199.449 110.451,200.282 109.5,201C 103.403,201.147 102.07,198.647 105.5,193.5 Z"/></g>
<g><path style="opacity:1" fill="#2b95be" d="M 190.5,199.5 C 189.947,201.552 188.947,201.885 187.5,200.5C 187.18,197.102 187.513,193.768 188.5,190.5C 189.167,193.642 189.834,196.642 190.5,199.5 Z"/></g>
<g><path style="opacity:1" fill="#2e6e92" d="M 134.5,201.5 C 132.142,201.747 130.142,201.081 128.5,199.5C 128.178,197.278 128.845,195.444 130.5,194C 136.597,193.853 137.93,196.353 134.5,201.5 Z"/></g>
<g><path style="opacity:1" fill="#e0eeeb" d="M 130.5,195.5 C 132.346,195.222 133.68,195.889 134.5,197.5C 133.68,199.111 132.346,199.778 130.5,199.5C 130.5,198.167 130.5,196.833 130.5,195.5 Z"/></g>
<g><path style="opacity:1" fill="#357097" d="M 175.5,199.5 C 173.91,201.424 172.076,201.757 170,200.5C 169.781,201.938 169.281,203.271 168.5,204.5C 167.702,204.043 167.369,203.376 167.5,202.5C 167.5,199.5 167.5,196.5 167.5,193.5C 169.857,193.337 172.19,193.503 174.5,194C 175.406,195.699 175.739,197.533 175.5,199.5 Z"/></g>
<g><path style="opacity:1" fill="#d5e6ee" d="M 169.5,195.5 C 170.833,195.5 172.167,195.5 173.5,195.5C 173.5,196.833 173.5,198.167 173.5,199.5C 172.167,199.5 170.833,199.5 169.5,199.5C 169.5,198.167 169.5,196.833 169.5,195.5 Z"/></g>
<g><path style="opacity:1" fill="#4b809d" d="M 256.5,193.5 C 262.172,193.829 263.839,196.329 261.5,201C 255.593,201.746 253.927,199.246 256.5,193.5 Z"/></g>
<g><path style="opacity:1" fill="#347492" d="M 285.5,193.5 C 287.48,194.848 288.647,196.848 289,199.5C 289.543,197.369 290.376,195.369 291.5,193.5C 292.408,196.614 291.575,199.281 289,201.5C 286.78,199.353 285.613,196.686 285.5,193.5 Z"/></g>
<g><path style="opacity:1" fill="#326690" d="M 191.5,193.5 C 193.369,195.635 194.036,198.302 193.5,201.5C 191.631,199.365 190.964,196.698 191.5,193.5 Z"/></g>
<g><path style="opacity:1" fill="#627990" d="M 230.5,193.5 C 232.288,193.215 233.955,193.548 235.5,194.5C 234.675,195.386 233.675,195.719 232.5,195.5C 232.799,197.604 232.466,199.604 231.5,201.5C 230.52,198.914 230.187,196.247 230.5,193.5 Z"/></g>
<g><path style="opacity:1" fill="#3c7b98" d="M 278.5,193.5 C 280.144,193.286 281.644,193.62 283,194.5C 283.311,196.556 283.811,198.556 284.5,200.5C 282.235,201.647 279.902,201.814 277.5,201C 276.663,199.989 276.33,198.822 276.5,197.5C 278.308,197.509 279.975,197.009 281.5,196C 280.167,195.667 278.833,195.333 277.5,195C 278.056,194.617 278.389,194.117 278.5,193.5 Z"/></g>
<g><path style="opacity:1" fill="#396b84" d="M 294.5,193.5 C 295.748,194.334 296.415,195.667 296.5,197.5C 296.167,198.833 295.833,200.167 295.5,201.5C 294.52,198.914 294.187,196.247 294.5,193.5 Z"/></g>
<g><path style="opacity:1" fill="#577d9a" d="M 336.5,193.5 C 338.288,193.215 339.955,193.548 341.5,194.5C 339.205,196.2 337.872,198.534 337.5,201.5C 336.52,198.914 336.187,196.247 336.5,193.5 Z"/></g>
<g><path style="opacity:1" fill="#3c7997" d="M 344.5,193.5 C 351.683,194.649 352.016,196.483 345.5,199C 347.167,199.333 348.833,199.667 350.5,200C 347.863,202.074 345.363,201.907 343,199.5C 342.252,197.16 342.752,195.16 344.5,193.5 Z"/></g>
</svg>
